<svg width="18" height="18" viewBox="0 0 18 18" fill="none" xmlns="http://www.w3.org/2000/svg">
<rect width="18" height="18" fill="white"/>
<path d="M13.4992 0.0037452L11.165 0C8.54262 0 6.84793 1.73871 6.84793 4.42982V6.47227H4.50103C4.29823 6.47227 4.134 6.63668 4.134 6.83949V9.79876C4.134 10.0016 4.29842 10.1658 4.50103 10.1658H6.84793V17.633C6.84793 17.8358 7.01216 18 7.21496 18H10.277C10.4798 18 10.644 17.8356 10.644 17.633V10.1658H13.3881C13.5909 10.1658 13.7551 10.0016 13.7551 9.79876L13.7563 6.83949C13.7563 6.74211 13.7175 6.64886 13.6488 6.57994C13.58 6.51103 13.4864 6.47227 13.389 6.47227H10.644V4.74086C10.644 3.90868 10.8423 3.48622 11.9264 3.48622L13.4988 3.48566C13.7014 3.48566 13.8656 3.32124 13.8656 3.11863V0.370775C13.8656 0.168347 13.7016 0.00411972 13.4992 0.0037452Z" fill="#3B5998"/>
</svg>
